<?xml version="1.0" encoding="UTF-8"?>
<svg version="1.1" viewBox="0 0 2000 1500" width="1280" height="1280" xmlns="http://www.w3.org/2000/svg">
<path transform="translate(0)" d="m0 0h2e3v1500h-2e3z" fill="#FEFEFE"/>
<path transform="translate(509,510)" d="m0 0 9 1 23 16 220 154 8 7 1 2v92l-4 7-4 2h-10l-12-7-16-12-9-6v213l-3 6-4 3-4 1h-142l-7-3-3-4-1-3v-127h-82v125l-3 7-5 4-3 1h-142l-7-3-4-5-1-5-1-209-18 13-15 10-5 2-7-1-5-5-2-4v-89l4-6 9-7 183-128 17-12 23-16 19-13z" fill="#3D9970"/>
<path transform="translate(510,622)" d="m0 0 5 2 23 16 60 42 17 12 43 30 20 14 11 8v215h-109l-1-124-2-7-3-3-3-1h-120l-5 3-2 4-1 128h-110v-215l160-112z" fill="#FEFEFE"/>
<path transform="translate(510,540)" d="m0 0 5 2 16 11 200 140 13 9v50l-11-7-18-13-23-16-40-28-17-12-80-56-17-12-19-13-4-2h-8l-14 9-40 28-17 12-60 42-17 12-60 42-19 13h-2v-48l10-8 22-15 180-126z" fill="#FEFEFE"/>
<path transform="translate(908,737)" d="m0 0h19l11 4 8 7 6 12 2 8v41l-3 12-6 9-8 7-7 3-5 1h-16l-11-4-8-7-5-9-1 53h-17v-135h17v21l4-9 4-6 7-5z" fill="#3D9970"/>
<path transform="translate(1202,737)" d="m0 0h19l12 5 8 8 5 11 2 9v37l-3 13-6 10-8 7-12 4h-16l-10-3-8-6-6-10-1-4v56h-17v-135h17v19l6-11 7-6z" fill="#3D9970"/>
<path transform="translate(1088,736)" d="m0 0h13l16 4 10 7 6 9 4 11 1 6v31l-2 10-4 10-9 10-10 5-7 2-13 1-15-2-9-4-8-6-6-9-3-8-2-12v-24l3-16 5-10 7-7 12-6z" fill="#3D9970"/>
<path transform="translate(817,509)" d="m0 0 5 1 4 6 1 6v455l-2 8-4 5-5-1-3-3-2-7v-459l3-8z" fill="#3D9970"/>
<path transform="translate(1176,551)" d="m0 0h15l12 3 10 6 6 7 4 8 2 7 1 17-1 11h-67l2 16 6 9 8 4 7 2h18l15-4 8-4h2l-1 13-5 4-15 5-6 1h-19l-13-3-9-5-5-5-6-8-4-16v-30l3-14 5-10 9-8 12-5z" fill="#3D9970"/>
<path transform="translate(1608,736)" d="m0 0h13l13 3 10 6 6 7 4 8 2 7 1 17-1 11h-67l2 16 5 8 8 5 8 2h19l12-3 12-5-1 13-3 3-12 5-10 2h-22l-11-3-8-4-7-6-5-8-3-9-1-7v-30l3-14 4-8 7-8 12-6z" fill="#3D9970"/>
<path transform="translate(1303,736)" d="m0 0h13l10 2 12 6 8 9 5 13 1 8v14l-1 7h-67l1 12 4 9 5 5 8 4 5 1h19l12-3 12-5-1 14-12 6-13 3h-21l-12-3-9-5-5-5-4-5-4-9-2-12v-26l3-16 5-9 5-6 10-6z" fill="#3D9970"/>
<path transform="translate(869,523)" d="m0 0h82v14h-65v43h63v14h-63l1 45 64 1v14h-81l-1-1z" fill="#3D9970"/>
<path transform="translate(1086,750)" d="m0 0h16l8 3 7 7 4 10v37l-3 9-7 8-10 4h-13l-9-3-6-5-5-10-1-5v-33l4-11 6-7z" fill="#FEFEFE"/>
<path transform="translate(1200,750)" d="m0 0h11l9 3 6 5 4 8 1 3v39l-4 10-8 7-6 2h-16l-12-6-6-9-2-8v-33l5-10 5-5 6-4z" fill="#FEFEFE"/>
<path transform="translate(906,750)" d="m0 0h12l10 4 7 8 3 11v31l-3 11-4 6-8 5-4 1h-15l-10-4-7-8-3-8v-38l4-8 9-8z" fill="#FEFEFE"/>
<path transform="translate(1709,736)" d="m0 0 18 2 14 5 3 2 1 5v9l-15-6-11-2h-16l-9 3-3 3-1 3v8l3 5 7 4 32 9 10 6 4 5 3 8v13l-3 9-6 7-10 5-9 2h-23l-16-4-8-4-1-5v-10l20 7 5 1h20l9-3 4-5 1-8-3-7-8-5-29-8-11-6-6-7-2-5v-16l4-9 7-6 12-4z" fill="#3D9970"/>
<path transform="translate(1077,527)" d="m0 0h8v20l-1 8h41v9l-1 4h-39l1 62 3 6 4 3 3 1h18l12-3v9l-1 5-11 4-7 1h-13l-12-3-8-6-4-8-2-10v-61h-16v-13h16v-26l1-1z" fill="#3D9970"/>
<path transform="translate(1465,712)" d="m0 0h7l-1 28h41l-1 13-1 1h-39l1 58 3 8 4 4 9 2 14-1 11-3-1 14-11 4-6 1h-16l-13-4-7-7-3-7-1-5v-64h-16l-1-1v-12l1-1h16v-26z" fill="#3D9970"/>
<path transform="translate(1418,737)" d="m0 0h8l7 2 1 6v10l-8-1h-9l-10 3-6 4-7 8-2 4-1 66h-17v-100h16v24l4-10 6-8 7-5z" fill="#3D9970"/>
<path transform="translate(975,518)" d="m0 0h17v136h-16l-1-1z" fill="#3D9970"/>
<path transform="translate(1022,737)" d="m0 0h8l7 2 1 16-8-1h-9l-10 3-9 6-6 10-1 2-1 64h-16v-100h16v24l5-12 6-7 6-4z" fill="#3D9970"/>
<path transform="translate(1532,739)" d="m0 0h17v100h-17z" fill="#3D9970"/>
<path transform="translate(1020,554)" d="m0 0h16v100h-16z" fill="#3D9970"/>
<path transform="translate(1175,565)" d="m0 0h17l10 5 6 9 2 9v10h-52v-14l4-10 8-7z" fill="#FEFEFE"/>
<path transform="translate(1302,750)" d="m0 0h16l10 5 6 9 2 8v11h-52v-13l4-11 8-7z" fill="#FEFEFE"/>
<path transform="translate(1607,750)" d="m0 0h15l8 3 5 5 3 4 3 12v9h-52v-14l4-10 8-7z" fill="#FEFEFE"/>
<path transform="translate(1088,934)" d="m0 0 9 1 6 4 3 4 1 4v17l-3 6-6 5-4 1h-8l-8-3-4-5-1-3v-20l4-7 5-3z" fill="#3D9970"/>
<path transform="translate(883,934)" d="m0 0 9 1 6 4 3 4 1 4v16l-3 7-6 5-4 1h-8l-8-3-4-5-1-3v-20l4-7 5-3z" fill="#3D9970"/>
<path transform="translate(909,935)" d="m0 0h5l3 8 5 22v5h2l1-9 6-24h10l8 32 8-33 1-1h6l-3 15-6 24-1 1h-10l-7-29v-4h-2l-1 9-6 24h-10l-3-9-7-30z" fill="#3D9970"/>
<path transform="translate(1116,935)" d="m0 0h6l1 28 2 5 2 1h9l5-5 1-29h6l1 1v38l-1 1h-6l-1-5-6 5-9 1-7-3-3-6z" fill="#3D9970"/>
<path transform="translate(1196,935)" d="m0 0h6l1 28 2 5 2 1h9l5-5 1-28 1-1h5l1 1v39h-7l-1-5-6 5-9 1-6-3-4-6z" fill="#3D9970"/>
<path transform="translate(1279,935)" d="m0 0h5l1 1 1 29 4 4h8l4-2 2-4 1-28h6v40h-6l-1-6-4 5-6 2-9-1-5-5-2-7v-27z" fill="#3D9970"/>
<path transform="translate(1349,935)" d="m0 0h6l4 10 7 22 2-3 10-29h6l1 2-15 43-4 9h-6l3-11 2-5h-4l-12-35z" fill="#3D9970"/>
<path transform="translate(972,935)" d="m0 0h6l1 6 5-5 2-1h11l5 3 2 4 1 6v26l-1 1h-6l-1-29-2-4-2-1h-8l-5 4-1 2-1 28h-6z" fill="#3D9970"/>
<path transform="translate(1031,935)" d="m0 0h6l4 10 7 22 2-3 10-28 1-1h6l-3 11-15 42-1 1h-6l3-11 2-5h-4l-12-35z" fill="#3D9970"/>
<path transform="translate(1085,940)" d="m0 0h10l4 4 2 7v9l-2 6-4 4-6 1-7-3-3-6v-14l3-6z" fill="#FEFEFE"/>
<path transform="translate(880,940)" d="m0 0h10l5 6 1 5v8l-3 9-3 2-6 1-7-3-3-5v-16l4-6z" fill="#FEFEFE"/>
<path transform="translate(1237,935)" d="m0 0h6l7 10 3 5 2 1 2-5 7-11h7l-4 8-7 11 6 11 5 8v2h-7l-9-15v-2l-3 3-8 13-1 1h-7l8-14 3-5-1-5-9-14z" fill="#3D9970"/>
<path transform="translate(1027,516)" d="m0 0 7 1 4 5v10l-5 5h-9l-5-4-1-2v-8l3-5z" fill="#3D9970"/>
<path transform="translate(1535,702)" d="m0 0h10l5 4 1 8-3 6-3 2h-9l-5-4-1-9 3-5z" fill="#3D9970"/>
<path transform="translate(1322,935)" d="m0 0h6l1 7 5-6 3-1h8l1 6-2 1h-7l-6 4-2 4-1 25h-6z" fill="#3D9970"/>
<path transform="translate(1179,921)" d="m0 0h6v54h-6z" fill="#3D9970"/>
</svg>
