<?xml version="1.0" encoding="UTF-8"?>
<svg version="1.1" xmlns="http://www.w3.org/2000/svg" width="1580" height="571">
<path d="M0 0 C521.4 0 1042.8 0 1580 0 C1580 188.43 1580 376.86 1580 571 C1058.6 571 537.2 571 0 571 C0 382.57 0 194.14 0 0 Z " fill="#FEFEFE" transform="translate(0,0)"/>
<path d="M0 0 C5.59516917 2.05817603 10.30085609 5.46896113 15 9.0625 C20.1580431 12.92407075 25.36307289 16.68354591 30.6875 20.3125 C36.73574057 24.44075855 42.75385837 28.60886957 48.75 32.8125 C49.59006592 33.40135986 50.43013184 33.99021973 51.2956543 34.59692383 C53.00907579 35.79832583 54.72237271 36.9999055 56.43554688 38.20166016 C60.62173125 41.13724984 64.81099592 44.06843609 69 47 C70.66668197 48.16664481 72.33334862 49.3333115 74 50.5 C75.2375 51.36625 75.2375 51.36625 76.5 52.25 C119 82 161.5 111.75 204 141.5 C204.8257251 142.0779834 205.6514502 142.6559668 206.50219727 143.25146484 C208.16163156 144.41311751 209.82097466 145.57490045 211.48022461 146.73681641 C215.75679158 149.73129575 220.03512736 152.723198 224.31640625 155.7109375 C228.50283587 158.63305068 232.68372869 161.56291203 236.86035156 164.49902344 C238.74399817 165.82041314 240.633012 167.13365657 242.5234375 168.4453125 C243.48507812 169.12335938 244.44671875 169.80140625 245.4375 170.5 C246.21996094 171.0465625 247.00242187 171.593125 247.80859375 172.15625 C254.48170302 177.770702 254.48170302 177.770702 255.46406746 181.99604607 C255.64192856 184.34884915 255.66443207 186.65602912 255.63110352 189.01538086 C255.64183647 190.34582176 255.64183647 190.34582176 255.65278625 191.70314026 C255.6696433 194.62423804 255.65028665 197.54379445 255.62890625 200.46484375 C255.6297353 202.50216295 255.63219603 204.53948208 255.63621521 206.57679749 C255.63907127 210.84298886 255.62439179 215.10865469 255.59692383 219.37475586 C255.56286338 224.83347657 255.56885407 230.29125637 255.5875864 235.75002193 C255.59817428 239.95634246 255.58920191 244.16244548 255.57420158 248.3687458 C255.569031 250.38090938 255.56948789 252.39309578 255.57574654 254.40525627 C255.58121942 257.22240596 255.56075647 260.03822651 255.53344727 262.85522461 C255.54323608 264.09373672 255.54323608 264.09373672 255.55322266 265.35726929 C255.4603582 271.01369573 254.23069333 274.33232034 251 279 C248.12864592 281.09297496 245.63379891 281.29610374 242.125 281.3125 C241.30257813 281.32925781 240.48015625 281.34601563 239.6328125 281.36328125 C232.96810764 280.44367064 227.70047864 275.76679848 222.4375 271.875 C217.07193227 267.9309966 211.66857194 264.05576737 206.18774414 260.27392578 C205.59024605 259.8609877 204.99274796 259.44804962 204.37714386 259.02259827 C202.9184368 258.01457202 201.45926631 257.00721647 200 256 C200.00276538 257.09221422 200.00553076 258.18442844 200.00837994 259.30974007 C200.07495182 285.87460212 200.12426456 312.43945336 200.15543652 339.00438118 C200.17091136 351.8509327 200.19201274 364.69742914 200.22631836 377.54394531 C200.25620174 388.73978044 200.27557051 399.93557568 200.28226548 411.13144958 C200.28617952 417.06064597 200.29539102 422.98972824 200.31719017 428.91888809 C200.33753845 434.49858343 200.3438371 440.07811754 200.33932304 445.65784645 C200.34014898 447.70650801 200.34612442 449.75517491 200.35761642 451.8038044 C200.37253444 454.60012444 200.36895601 457.39583515 200.36076355 460.19216919 C200.36950207 461.00346413 200.3782406 461.81475907 200.38724393 462.6506387 C200.34884984 467.49660673 199.67499322 470.80040615 197 475 C190.71710226 480.22601128 183.95517719 479.55973088 176.08178711 479.50170898 C174.67178306 479.50549625 173.26178273 479.51099965 171.85179138 479.51808167 C168.03771567 479.53199939 164.22409291 479.52089335 160.41004252 479.50437045 C156.41166916 479.49048144 152.41332106 479.4969843 148.41493225 479.50050354 C141.70257296 479.50320232 134.99039283 479.48975772 128.27807617 479.46655273 C120.52481958 479.43993418 112.77186225 479.43820055 105.01857561 479.4499411 C97.5493125 479.46073037 90.08015733 479.45452351 82.61090279 479.44038582 C79.43678794 479.43463706 76.26275237 479.43469991 73.0886364 479.43945122 C69.34976146 479.44423323 65.61121313 479.43406904 61.87240028 479.41249657 C59.85067936 479.40430343 57.8289156 479.41076751 55.80718994 479.41769409 C54.59741989 479.40778946 53.38764984 479.39788483 52.14122009 479.38768005 C51.09393706 479.38525016 50.04665403 479.38282026 48.96763515 479.38031673 C44.57442984 478.81730632 41.17364324 477.29505461 38.1875 474 C36.13082643 470.53612872 35.87585537 467.75850606 35.87974548 463.81782532 C35.87768349 462.20874298 35.87768349 462.20874298 35.87557983 460.56715393 C35.87917511 459.39039597 35.88277039 458.213638 35.88647461 457.0012207 C35.88632858 455.76207916 35.88618256 454.52293762 35.8860321 453.24624634 C35.88660985 449.84774828 35.89162902 446.44931079 35.89860606 443.05082345 C35.90485259 439.49939416 35.90544443 435.94796409 35.90663147 432.39653015 C35.90974095 425.67113007 35.91794918 418.94574623 35.92798096 412.22035331 C35.94124271 403.13250784 35.9466451 394.04465793 35.95248318 384.95680523 C35.96188931 370.63785799 35.9818108 356.31894501 36 342 C8.94 342 -18.12 342 -46 342 C-45.95359375 351.09820312 -45.9071875 360.19640625 -45.859375 369.5703125 C-45.83893932 375.3307337 -45.81951819 381.09112866 -45.8046875 386.8515625 C-45.78095321 395.99683606 -45.75305206 405.1419622 -45.69824219 414.28710938 C-45.65834333 420.94750196 -45.63255986 427.60777495 -45.62364602 434.26828372 C-45.61843635 437.79425226 -45.60621335 441.31987869 -45.57707977 444.84573746 C-45.54480239 448.7841045 -45.54404256 452.72213841 -45.54589844 456.66064453 C-45.53151733 457.82661667 -45.51713623 458.99258881 -45.50231934 460.19389343 C-45.53329211 466.25953682 -45.62819855 470.38195993 -50 475 C-55.59799136 480.50674316 -62.55306292 479.56459169 -69.89648438 479.51757812 C-71.31619483 479.52300263 -72.73589966 479.53012713 -74.15559387 479.53881836 C-78.00070118 479.55701596 -81.84537803 479.54999918 -85.69049263 479.53730202 C-89.71957664 479.52715575 -93.74862446 479.5365722 -97.77770996 479.54284668 C-104.54311726 479.55011837 -111.30834973 479.54054802 -118.07373047 479.52148438 C-125.88893503 479.49971644 -133.70372215 479.50676816 -141.51891661 479.52879 C-148.23588486 479.54695771 -154.95272765 479.54949565 -161.66971254 479.53903532 C-165.67841208 479.53280789 -169.68691557 479.53194397 -173.69560242 479.54518127 C-177.46490144 479.55675926 -181.23366369 479.54867916 -185.00290489 479.52560425 C-186.38395485 479.52032746 -187.76505019 479.52181336 -189.14608192 479.53065491 C-202.06870445 479.60574262 -202.06870445 479.60574262 -207 475 C-211.19006622 470.23199361 -211.15087449 465.72747097 -211.15821838 459.62886047 C-211.16562535 458.33257124 -211.16562535 458.33257124 -211.17318195 457.01009434 C-211.18858585 454.10349261 -211.19692541 451.19691301 -211.20532227 448.2902832 C-211.21489852 446.2110474 -211.22490844 444.13181357 -211.23532104 442.05258179 C-211.26240359 436.39799359 -211.28339502 430.74339702 -211.30332303 425.08877969 C-211.32516193 419.18304679 -211.35256086 413.27733981 -211.37937927 407.37162781 C-211.42933454 396.18383781 -211.47426285 384.99603345 -211.51740164 373.80821532 C-211.56674981 361.0731835 -211.6216769 348.33817768 -211.67708123 335.60317099 C-211.79094477 309.40213824 -211.89777429 283.20108056 -212 257 C-212.5014151 257.3640242 -213.0028302 257.7280484 -213.5194397 258.10310364 C-215.83753553 259.78488654 -218.15704026 261.46471626 -220.4765625 263.14453125 C-221.26490479 263.71691528 -222.05324707 264.28929932 -222.86547852 264.87902832 C-227.97409828 268.57615925 -233.1340521 272.18049066 -238.375 275.6875 C-238.9827124 276.0944812 -239.5904248 276.5014624 -240.21655273 276.92077637 C-248.98890275 282.72133167 -248.98890275 282.72133167 -255 282 C-259.95071881 279.47610414 -261.96673755 277.11538681 -264 272 C-264.4290635 269.05798692 -264.4508823 266.15383092 -264.45166016 263.18408203 C-264.46334229 262.31823486 -264.47502441 261.4523877 -264.48706055 260.56030273 C-264.52054537 257.70935885 -264.53137242 254.85893549 -264.5390625 252.0078125 C-264.55124971 250.01772889 -264.56373594 248.02764709 -264.57650757 246.03756714 C-264.59895762 241.86989226 -264.60853502 237.7023999 -264.61083984 233.53466797 C-264.61612366 228.20573512 -264.66747099 222.87832853 -264.73035622 217.54980659 C-264.77130393 213.44039994 -264.78048265 209.33135976 -264.78095627 205.22176743 C-264.78632758 203.25780646 -264.80313609 201.29384097 -264.83180618 199.33008194 C-265.06292122 182.06159761 -265.06292122 182.06159761 -260.66821289 176.90234375 C-258.84339905 175.30102539 -258.84339905 175.30102539 -257 174 C-256.38730759 173.52029251 -255.77461517 173.04058502 -255.14335632 172.54634094 C-253.41771951 171.22683743 -251.63910972 170.05028779 -249.8125 168.875 C-248.39634414 167.93217703 -246.98101851 166.98810617 -245.56640625 166.04296875 C-244.45289795 165.30506104 -244.45289795 165.30506104 -243.31689453 164.55224609 C-239.25021246 161.82769767 -235.25366452 159.00346148 -231.25 156.1875 C-229.54699395 154.99331993 -227.84386793 153.79931093 -226.140625 152.60546875 C-225.29048828 152.00911621 -224.44035156 151.41276367 -223.56445312 150.79833984 C-219.37826875 147.86275016 -215.18900408 144.93156391 -211 142 C-209.33331803 140.83335519 -207.66665138 139.6666885 -206 138.5 C-156 103.5 -106 68.5 -56 33.5 C-55.1745166 32.92209717 -54.3490332 32.34419434 -53.49853516 31.7487793 C-51.83699609 30.58583183 -50.17521338 29.42323237 -48.51318359 28.26098633 C-44.26596798 25.29026766 -40.02356021 22.31304334 -35.7890625 19.32421875 C-31.62902682 16.39025356 -27.45783323 13.47312352 -23.27294922 10.57470703 C-21.80597683 9.55838352 -20.34128201 8.5387609 -18.87939453 7.51513672 C-16.99337345 6.20086037 -15.09392793 4.90942648 -13.1875 3.625 C-11.63095703 2.56152344 -11.63095703 2.56152344 -10.04296875 1.4765625 C-6.27766362 -0.35050469 -4.14953627 -0.54729019 0 0 Z " fill="#3F9A71" transform="translate(303,66)"/>
<path d="M0 0 C2.42995602 1.19200187 4.53959527 2.4651321 6.7421875 4.03222656 C7.9168457 4.86173828 7.9168457 4.86173828 9.11523438 5.70800781 C9.94990234 6.30484375 10.78457031 6.90167969 11.64453125 7.51660156 C13.44782221 8.79277671 15.25121032 10.06881459 17.0546875 11.34472656 C17.9739502 11.99763672 18.89321289 12.65054688 19.84033203 13.32324219 C24.07383812 16.32401765 28.3282674 19.29464978 32.58203125 22.26660156 C34.24881278 23.43310412 35.91547911 24.5997713 37.58203125 25.76660156 C38.40703125 26.34410156 39.23203125 26.92160156 40.08203125 27.51660156 C69.24869792 47.93326823 98.41536458 68.3499349 127.58203125 88.76660156 C128.40751465 89.34442383 129.23299805 89.92224609 130.08349609 90.51757812 C131.74534116 91.68090215 133.4071253 92.8443132 135.06884766 94.0078125 C139.30878217 96.97634872 143.54985853 99.943231 147.79296875 102.90722656 C148.65792969 103.51179688 149.52289063 104.11636719 150.4140625 104.73925781 C152.02823834 105.86744523 153.64277879 106.9951113 155.2578125 108.12207031 C156.76966682 109.17907616 158.26893877 110.25433313 159.75434685 111.34819221 C162.61829333 113.37422054 162.61829333 113.37422054 166.08075142 115.06670952 C170.69589794 117.57581857 175.40867359 120.23360298 177.38253927 125.33582544 C178.66655064 131.53306194 178.33574373 137.84712863 178.17138672 144.13818359 C178.16743376 146.2578556 178.16966204 148.37754675 178.17758179 150.49720764 C178.18158823 156.23159764 178.09947137 161.96186234 178.00154638 167.69529581 C177.91384113 173.69418136 177.90578986 179.69316867 177.88919067 185.69259644 C177.84573008 197.04399021 177.73092141 208.39348933 177.59029782 219.74404991 C177.40433489 235.0883432 177.32894084 250.43315712 177.24726677 265.77829361 C177.11574558 289.94248126 176.83681411 314.10267131 176.58203125 338.26660156 C140.61203125 338.26660156 104.64203125 338.26660156 67.58203125 338.26660156 C67.54464844 329.24058594 67.50726563 320.21457031 67.46875 310.91503906 C67.4346281 304.47347749 67.39863981 298.03194758 67.35995388 291.59041405 C67.3100789 283.24437451 67.26461886 274.89838699 67.2355957 266.55224609 C67.21260364 259.94450366 67.17919223 253.33690961 67.13332969 246.72928488 C67.10941358 243.23139034 67.09067432 239.73364259 67.08441734 236.23566818 C67.07723273 232.32833513 67.0467836 228.42136963 67.0144043 224.51416016 C67.01583939 223.35753876 67.01727448 222.20091736 67.01875305 221.00924683 C66.95295449 215.40225767 66.89845148 211.03432167 63.58203125 206.26660156 C61.12087578 204.42225807 61.12087578 204.42225807 58.58203125 203.26660156 C57.92203125 202.93660156 57.26203125 202.60660156 56.58203125 202.26660156 C55.0521554 202.16585293 53.51798749 202.12718905 51.9848175 202.11943054 C51.01614243 202.11227524 50.04746735 202.10511993 49.04943848 202.0977478 C47.98294067 202.0950589 46.91644287 202.09237 45.81762695 202.08959961 C44.13693367 202.07974281 44.13693367 202.07974281 42.42228699 202.06968689 C38.70079487 202.04991792 34.97934319 202.03828265 31.2578125 202.02832031 C29.98860647 202.02424479 28.71940044 202.02016926 27.41173363 202.01597023 C21.38625746 201.99724769 15.36080588 201.98268639 9.33530837 201.97435826 C2.38664218 201.96459519 -4.56170466 201.93830209 -11.51025838 201.89785737 C-17.53305375 201.86400836 -23.55569467 201.85220899 -29.5785923 201.84815407 C-32.13783748 201.84328042 -34.69707907 201.83164445 -37.25626183 201.81311607 C-40.83996374 201.78878522 -44.42283268 201.7896793 -48.0065918 201.79663086 C-49.06296844 201.7838208 -50.11934509 201.77101074 -51.20773315 201.7578125 C-57.46909195 201.8020523 -61.38136156 202.42551785 -66.41796875 206.26660156 C-68.45056961 209.41283826 -68.67481456 211.93951733 -68.69644165 215.6449585 C-68.70760513 216.73588303 -68.71876862 217.82680756 -68.73027039 218.95079041 C-68.73243057 220.14265457 -68.73459076 221.33451874 -68.73681641 222.5625 C-68.74686203 223.82129471 -68.75690765 225.08008942 -68.76725769 226.37702942 C-68.79455105 229.82501677 -68.80970506 233.27296328 -68.82268572 236.72103024 C-68.8383192 240.32588827 -68.86510872 243.93066294 -68.89071655 247.53546143 C-68.93750052 254.35995375 -68.97424645 261.18446177 -69.00738943 268.00903249 C-69.05276124 277.23227901 -69.11363235 286.45542238 -69.17363739 295.67858315 C-69.26775481 310.2078709 -69.34115772 324.73718814 -69.41796875 339.26660156 C-105.71796875 339.26660156 -142.01796875 339.26660156 -179.41796875 339.26660156 C-180.34493854 285.74417212 -180.34493854 285.74417212 -180.54101562 263.26660156 C-180.67735245 247.76221183 -180.83736193 232.26070257 -181.15307617 216.75878906 C-181.38293839 205.4668822 -181.53084476 194.17731724 -181.58200413 182.8831358 C-181.61189849 176.90600671 -181.6816668 170.93557422 -181.84976006 164.96060181 C-182.86182455 127.55356675 -182.86182455 127.55356675 -177.21486282 119.76367188 C-172.03632456 114.38792652 -166.23826223 111.28206454 -159.3595295 108.55459595 C-154.51214446 106.43211566 -150.45266892 103.29017651 -146.23046875 100.14160156 C-144.59841475 98.99098371 -142.96339889 97.84454453 -141.32421875 96.70410156 C-140.51855469 96.13949219 -139.71289062 95.57488281 -138.8828125 94.99316406 C-136.36414788 93.22890136 -133.84434947 91.4662693 -131.32421875 89.70410156 C-123.57274529 84.28326252 -115.82704275 78.85496194 -108.10546875 73.39160156 C-100.48007333 67.99807349 -92.81436003 62.66336873 -85.14404297 57.33398438 C-76.37145685 51.23800176 -67.61799219 45.11504893 -58.86962891 38.984375 C-55.55486205 36.6618596 -52.23902288 34.34087788 -48.9230957 32.02001953 C-47.25877887 30.85511129 -45.59455296 29.69007313 -43.93041992 28.52490234 C-39.69074531 25.55650633 -35.449901 22.58980414 -31.20703125 19.62597656 C-30.34988525 19.0265625 -29.49273926 18.42714844 -28.60961914 17.80957031 C-26.91766614 16.6276334 -25.22417683 15.44789225 -23.52905273 14.27050781 C-19.70853535 11.60957968 -15.92723904 8.92053657 -12.2265625 6.09472656 C-11.58831543 5.61422852 -10.95006836 5.13373047 -10.29248047 4.63867188 C-9.12208402 3.75243797 -7.96254486 2.85159358 -6.81689453 1.93359375 C-3.02638517 -0.91793831 -3.02638517 -0.91793831 0 0 Z " fill="#FEFEFE" transform="translate(300.41796875,178.7333984375)"/>
<path d="M0 0 C2.59323437 1.37634768 4.95727855 2.86079657 7.35742188 4.55175781 C8.73546997 5.51686279 8.73546997 5.51686279 10.14135742 6.50146484 C11.11886963 7.19353027 12.09638184 7.8855957 13.10351562 8.59863281 C14.12421143 9.31519043 15.14490723 10.03174805 16.1965332 10.77001953 C18.3007415 12.24764716 20.40352021 13.72731263 22.50488281 15.20898438 C26.09195035 17.73689205 29.68785716 20.25196075 33.28491211 22.765625 C35.73999431 24.48165608 38.19349367 26.19992609 40.64648438 27.91894531 C45.61006141 31.39731851 50.57541576 34.87314819 55.54101562 38.34863281 C57.20768994 39.51528856 58.87435661 40.68195522 60.54101562 41.84863281 C61.77851562 42.71488281 61.77851562 42.71488281 63.04101562 43.59863281 C190.54101563 132.84863281 190.54101563 132.84863281 193.04443359 134.60107422 C194.69964578 135.75969038 196.35491854 136.91822 198.01025391 138.07666016 C202.35269244 141.1157677 206.69385431 144.15667745 211.03320312 147.20019531 C211.93425781 147.83183594 212.8353125 148.46347656 213.76367188 149.11425781 C215.48281316 150.31942902 217.20158636 151.52512553 218.91992188 152.73144531 C219.69980469 153.27800781 220.4796875 153.82457031 221.28320312 154.38769531 C221.96237793 154.86416504 222.64155273 155.34063477 223.34130859 155.83154297 C225.62324288 157.49943189 225.62324288 157.49943189 228.77050781 158.82568359 C231.956884 161.72734129 231.98148112 162.28288769 232.22216797 166.39257812 C232.22121926 168.4875449 232.18738806 170.58266271 232.12695312 172.67675781 C232.11846344 173.78090027 232.10997375 174.88504272 232.10122681 176.02264404 C232.06764189 179.54896651 231.99234669 183.07300165 231.91601562 186.59863281 C231.8859229 188.98922479 231.8585459 191.37985261 231.83398438 193.77050781 C231.76783388 199.63066312 231.66743288 205.48948458 231.54101562 211.34863281 C225.32021579 207.45860539 219.21158013 203.51697501 213.35351562 199.09863281 C208.19381562 195.26239253 202.97698071 191.53509314 197.66601562 187.91113281 C192.23715521 184.20629352 186.84077776 180.46178717 181.47851562 176.66113281 C174.69172868 171.85296628 167.87273326 167.09272549 161.04101562 162.34863281 C153.61399307 157.19006675 146.20359788 152.00984487 138.82226562 146.78613281 C133.40774076 142.95558941 127.97673406 139.14903137 122.54101562 135.34863281 C116.36415558 131.02960352 110.19538626 126.69965001 104.04101562 122.34863281 C95.41019297 116.24779692 86.75112454 110.1876473 78.08935547 104.13085938 C73.90558502 101.20486548 69.72337039 98.27664971 65.54101562 95.34863281 C63.87435661 94.18195522 62.20768994 93.01528856 60.54101562 91.84863281 C50.54101562 84.84863281 50.54101562 84.84863281 48.03881836 83.09692383 C46.37969017 81.93564761 44.72034923 80.77467527 43.06079102 79.61401367 C38.77695021 76.61738768 34.49744283 73.61484369 30.22460938 70.60253906 C13.8368224 57.00127244 13.8368224 57.00127244 -5.45898438 52.34863281 C-9.09261744 53.89836742 -12.2204132 56.10266267 -15.45898438 58.34863281 C-16.36632324 58.97656738 -16.36632324 58.97656738 -17.29199219 59.6171875 C-21.631213 62.63012068 -25.93674171 65.68888158 -30.234375 68.76074219 C-33.73762208 71.26130398 -37.25437611 73.74262326 -40.77148438 76.22363281 C-41.8141748 76.95984863 -41.8141748 76.95984863 -42.87792969 77.7109375 C-50.87253643 83.35268959 -58.89180005 88.95918676 -66.91064453 94.56640625 C-71.09441496 97.49240013 -75.27664892 100.42058836 -79.45898438 103.34863281 C-84.49335948 106.87318847 -89.52808487 110.39723812 -94.56445312 113.91894531 C-102.37337106 119.38039712 -110.17743818 124.84823213 -117.95898438 130.34863281 C-126.58986508 136.4493872 -135.24887491 142.50961795 -143.91064453 148.56640625 C-148.09441498 151.49240014 -152.27662961 154.42061592 -156.45898438 157.34863281 C-158.12564339 158.51531041 -159.79231006 159.68197707 -161.45898438 160.84863281 C-162.28398437 161.42613281 -163.10898438 162.00363281 -163.95898438 162.59863281 C-171.45898438 167.84863281 -171.45898438 167.84863281 -173.9597168 169.59912109 C-175.62397265 170.76411645 -177.28819799 171.92915541 -178.95239258 173.09423828 C-183.1556936 176.03683693 -187.35954618 178.97864185 -191.56445312 181.91894531 C-193.25846981 183.10383219 -194.95248027 184.28872796 -196.64648438 185.47363281 C-197.47269287 186.05121338 -198.29890137 186.62879395 -199.15014648 187.22387695 C-203.14537802 190.01923739 -207.13385037 192.82333165 -211.10742188 195.64941406 C-212.22467651 196.4429126 -212.22467651 196.4429126 -213.36450195 197.25244141 C-214.73322072 198.22564925 -216.10043087 199.20098509 -217.46557617 200.17919922 C-222.99793487 204.11152343 -228.71164652 207.7398086 -234.45898438 211.34863281 C-234.76428119 204.37549657 -234.97378525 197.40409034 -235.11816406 190.42578125 C-235.17836392 188.05468367 -235.260151 185.68402894 -235.36425781 183.31445312 C-236.20639079 163.64817112 -236.20639079 163.64817112 -232.06835938 158.20263672 C-228.9472739 156.13004089 -225.93085165 154.73926604 -222.45898438 153.34863281 C-220.81171852 152.28022163 -219.19371847 151.16470691 -217.61523438 149.99707031 C-216.8546875 149.46339844 -216.09414062 148.92972656 -215.31054688 148.37988281 C-214.14652344 147.56003906 -214.14652344 147.56003906 -212.95898438 146.72363281 C-211.2194271 145.50224153 -209.479843 144.28088846 -207.74023438 143.05957031 C-206.86496094 142.44436523 -205.9896875 141.82916016 -205.08789062 141.1953125 C-200.88208932 138.24094019 -196.67033468 135.29508699 -192.45898438 132.34863281 C-190.7922871 131.18200988 -189.12562048 130.01534314 -187.45898438 128.84863281 C-137.45898438 93.84863281 -87.45898438 58.84863281 -37.45898438 23.84863281 C-36.21967163 22.98044922 -36.21967163 22.98044922 -34.95532227 22.09472656 C-33.30254512 20.93867159 -31.64810537 19.78498965 -29.99194336 18.63378906 C-25.59559277 15.57304414 -21.24278096 12.46602388 -16.93164062 9.28613281 C-16.02607422 8.62742187 -15.12050781 7.96871094 -14.1875 7.29003906 C-12.44483035 6.02101809 -10.71248385 4.73766562 -8.9921875 3.43847656 C-8.20908203 2.87257813 -7.42597656 2.30667969 -6.61914062 1.72363281 C-5.934729 1.21574219 -5.25031738 0.70785156 -4.54516602 0.18457031 C-2.45898438 -0.65136719 -2.45898438 -0.65136719 0 0 Z " fill="#FDFEFE" transform="translate(300.458984375,96.6513671875)"/>
<path d="M0 0 C8.13969714 4.95649415 12.90877094 13.94614508 15.57514954 22.9400177 C16.01454813 25.07053986 16.1335947 26.99294253 16.14526367 29.16674805 C16.15164352 29.97826828 16.15802338 30.78978851 16.16459656 31.62590027 C16.16570938 32.49572037 16.1668222 33.36554047 16.16796875 34.26171875 C16.17296135 35.6195623 16.17296135 35.6195623 16.17805481 37.00483704 C16.18311373 38.92045586 16.18546345 40.83608348 16.18530273 42.75170898 C16.18747904 45.65949359 16.20561759 48.56689236 16.22460938 51.47460938 C16.22754568 53.34114455 16.22952889 55.20768151 16.23046875 57.07421875 C16.23765427 57.93391769 16.24483978 58.79361664 16.25224304 59.67936707 C16.20747075 71.71827815 13.12674633 82.38463499 4.77734375 91.28125 C-3.42637127 99.21451287 -13.26981713 100.58027747 -24.23852539 100.55761719 C-33.49695127 100.22084158 -40.69708784 96.83730589 -47.0625 90.0625 C-50.05192332 86.47975602 -51.01941761 83.62135892 -53 79 C-53.33 97.15 -53.66 115.3 -54 134 C-59.61 134 -65.22 134 -71 134 C-71 89.12 -71 44.24 -71 -2 C-65.39 -2 -59.78 -2 -54 -2 C-53.505 6.415 -53.505 6.415 -53 15 C-52.030625 13.30875 -51.06125 11.6175 -50.0625 9.875 C-39.98163028 -5.98094286 -15.96914348 -9.23216107 0 0 Z " fill="#429B73" transform="translate(726,297)"/>
<path d="M0 0 C0.91845703 0.00878174 1.83691406 0.01756348 2.78320312 0.02661133 C11.59511022 0.29012902 18.62092539 2.29155955 25.5625 7.875 C26.26375 8.761875 26.965 9.64875 27.6875 10.5625 C28.18765625 11.13742187 28.6878125 11.71234375 29.203125 12.3046875 C36.71127939 21.380078 37.81016179 32.41906845 37.92578125 43.8828125 C37.933853 44.66332977 37.94192474 45.44384705 37.95024109 46.24801636 C37.96399921 47.89351232 37.9747579 49.53903583 37.98266602 51.18457031 C37.99414821 52.84253499 38.01454016 54.50046381 38.04418945 56.15820312 C38.31482697 71.33809518 36.63483833 84.53608569 26.1328125 96.3046875 C18.09617221 104.0337052 8.29189574 105.14439955 -2.38256836 105.03735352 C-11.57457696 104.70608516 -18.82057311 102.20540194 -25.3125 95.5625 C-27.84778663 92.04892342 -29.93941846 88.68174461 -31.3125 84.5625 C-31.6425 102.3825 -31.9725 120.2025 -32.3125 138.5625 C-37.9225 138.5625 -43.5325 138.5625 -49.3125 138.5625 C-49.3125 93.6825 -49.3125 48.8025 -49.3125 2.5625 C-44.0325 2.5625 -38.7525 2.5625 -33.3125 2.5625 C-32.9825 8.8325 -32.6525 15.1025 -32.3125 21.5625 C-31.6525 20.056875 -30.9925 18.55125 -30.3125 17 C-26.36191598 9.15431769 -20.78812891 4.79848009 -12.81005859 1.3828125 C-8.55270108 -0.01549847 -4.44910197 -0.07385248 0 0 Z " fill="#419B73" transform="translate(998.3125,292.4375)"/>
<path d="M0 0 C6.82399294 6.04304552 11.15479441 16.05491608 12.875 24.875 C13.14694633 29.96865796 13.18845156 35.06064398 13.22509766 40.16088867 C13.24150653 41.8257459 13.26859214 43.49053725 13.30712891 45.1550293 C13.61785827 58.68256479 12.70047611 72.42755206 3.4609375 83.23828125 C2.93757812 83.77839844 2.41421875 84.31851563 1.875 84.875 C1.35164062 85.42542969 0.82828125 85.97585938 0.2890625 86.54296875 C-8.67663026 95.06669074 -19.96929631 96.07935401 -31.75 96.1875 C-32.77996094 96.21650391 -33.80992187 96.24550781 -34.87109375 96.27539062 C-46.34652427 96.3692149 -55.87162763 92.98329356 -64.125 84.875 C-69.77355343 78.43211874 -71.99089205 71.05027508 -74.125 62.875 C-74.39086914 62.00004883 -74.39086914 62.00004883 -74.66210938 61.10742188 C-75.66796902 56.25637724 -75.31089091 51.18564646 -75.31030273 46.25024414 C-75.3124744 44.21153413 -75.33060765 42.17337897 -75.34960938 40.13476562 C-75.36002603 33.09657824 -75.12264414 26.64026943 -73.125 19.875 C-72.87621094 18.90691406 -72.62742187 17.93882812 -72.37109375 16.94140625 C-69.44323085 7.87493225 -63.93038231 0.83353825 -55.6875 -4.0625 C-54.18454092 -4.78824394 -52.66311835 -5.47709398 -51.125 -6.125 C-50.4134375 -6.44210937 -49.701875 -6.75921875 -48.96875 -7.0859375 C-33.10171656 -13.00890546 -13.67083991 -9.29617114 0 0 Z " fill="#409A72" transform="translate(913.125,301.125)"/>
<path d="M0 0 C3.61468641 1.49877242 4.68320396 3.70661421 6.5625 7.0625 C7.75324768 10.63474304 7.70430143 13.87321212 7.69672108 17.59049416 C7.69907331 18.36791122 7.70142554 19.14532827 7.70384905 19.94630343 C7.71054984 22.57290956 7.7100805 25.19946635 7.70967102 27.82608032 C7.71296898 29.71966419 7.7166944 31.61324736 7.7208125 33.50682962 C7.73084844 38.72740106 7.73455185 43.947961 7.73720181 49.16854072 C7.74110015 54.79243952 7.75067882 60.41632919 7.75941467 66.04022217 C7.77919255 79.63053002 7.78924704 93.22083864 7.79814246 106.81115729 C7.80252326 113.20757474 7.80789061 119.60399137 7.81313133 126.00040817 C7.83014505 147.25768445 7.84466471 168.51495977 7.85188007 189.77224159 C7.85235483 191.14722316 7.85283072 192.52220473 7.85330774 193.8971863 C7.8536623 194.91999263 7.8536623 194.91999263 7.85402403 195.96346171 C7.85522523 199.41818671 7.85644068 202.87291172 7.85766602 206.32763672 C7.85790617 207.01323887 7.85814632 207.69884102 7.85839374 208.40521899 C7.86628633 230.63311972 7.88971681 252.86096708 7.92222196 275.08884451 C7.95652163 298.58675272 7.97623022 322.08461819 7.97952431 345.58255517 C7.98169126 358.39257095 7.99046691 371.2025083 8.01598549 384.01250076 C8.03766544 394.92090368 8.04575622 405.82920914 8.03601871 416.73763116 C8.03146617 422.30427565 8.03341576 427.87071892 8.05278015 433.43733597 C8.0703563 438.53386704 8.06945912 443.63004927 8.05388286 448.72658376 C8.05149835 450.56984948 8.05587385 452.41313899 8.06771151 454.25636823 C8.17721597 472.43387986 8.17721597 472.43387986 3.5625 479.0625 C2.9025 479.7225 2.2425 480.3825 1.5625 481.0625 C-1.1700995 480.85230004 -2.91097135 480.45252122 -5.125 478.8125 C-8.5214866 474.2838512 -8.7250718 469.71318685 -8.69197559 464.23317814 C-8.69518207 463.44748948 -8.69838855 462.66180082 -8.70169219 461.85230342 C-8.71001861 459.20957243 -8.70405868 456.56706652 -8.69819641 453.92433167 C-8.70121589 452.01450845 -8.70510434 450.10468645 -8.70978898 448.1948666 C-8.72010395 442.93879762 -8.71787827 437.68279658 -8.71360838 432.42672193 C-8.71114751 426.76133123 -8.72014734 421.09595717 -8.72764587 415.43057251 C-8.74041252 404.32862695 -8.74218414 393.22670556 -8.73984561 382.1247539 C-8.73806456 373.10365844 -8.73980752 364.08257033 -8.74407005 355.06147575 C-8.74466524 353.77889329 -8.74526043 352.49631082 -8.74587366 351.17486222 C-8.74708537 348.56953327 -8.74829951 345.96420433 -8.74951603 343.35887539 C-8.75730631 325.85911746 -8.76122021 308.35936401 -8.75719929 290.85960484 C-8.75704291 290.17512193 -8.75688654 289.49063902 -8.75672542 288.7854142 C-8.75591962 285.31609378 -8.75507385 281.84677338 -8.75421212 278.37745298 C-8.75404103 277.68842079 -8.75386994 276.99938861 -8.75369367 276.28947667 C-8.75334702 274.89608617 -8.75299849 273.50269567 -8.75264808 272.10930517 C-8.74729002 250.42466067 -8.75522317 228.74005683 -8.77368164 207.05541992 C-8.79439013 182.69891882 -8.8050955 158.34244902 -8.80110615 133.98593754 C-8.79919104 121.08719923 -8.80171188 108.18849798 -8.81582069 95.28976631 C-8.82770914 84.30960083 -8.82916792 73.3294952 -8.81703053 62.34932894 C-8.81112411 56.74459948 -8.81009097 51.13997963 -8.82203293 45.53525734 C-8.83283178 40.40755049 -8.82986025 35.28004555 -8.81577124 30.15234839 C-8.81310771 28.29439543 -8.81554237 26.43642694 -8.82350711 24.57848913 C-8.83356479 22.05796799 -8.82523288 19.5381553 -8.81223011 17.017663 C-8.82319413 15.92923207 -8.82319413 15.92923207 -8.83437964 14.81881264 C-8.77522438 9.30740752 -7.21736997 5.57049859 -4.0625 1.125 C-2.4375 0.0625 -2.4375 0.0625 0 0 Z " fill="#429B73" transform="translate(607.4375,64.9375)"/>
<path d="M0 0 C9.25989376 9.60866565 11.81797396 21.09177613 11.76171875 33.96484375 C11.76558594 34.84591797 11.76945312 35.72699219 11.7734375 36.63476562 C11.77214844 37.49521484 11.77085938 38.35566406 11.76953125 39.2421875 C11.76840332 40.0168335 11.76727539 40.79147949 11.76611328 41.58959961 C11.61570287 44.42327505 11.10322792 47.22828873 10.63671875 50.02734375 C-11.47328125 50.02734375 -33.58328125 50.02734375 -56.36328125 50.02734375 C-55.26656692 63.42497104 -55.26656692 63.42497104 -48.3828125 73.76953125 C-41.28869105 78.87339143 -34.01333294 80.4228003 -25.36328125 80.40234375 C-24.63488037 80.40073242 -23.90647949 80.39912109 -23.15600586 80.39746094 C-11.71467292 80.14592177 -0.74361383 76.71845559 9.63671875 72.02734375 C9.98464063 76.91163169 9.98058103 81.29484052 8.63671875 86.02734375 C5.0254368 89.16419144 1.1548093 90.58244394 -3.36328125 92.02734375 C-4.31847656 92.383125 -5.27367187 92.73890625 -6.2578125 93.10546875 C-21.47242088 97.62200658 -41.15148249 97.08014699 -55.15625 89.51953125 C-64.83457058 83.37229661 -70.19580538 73.85586707 -72.90039062 62.83959961 C-73.8090431 57.31915244 -73.54919105 51.68356088 -73.54858398 46.1003418 C-73.55075755 43.86422313 -73.5689015 41.62860884 -73.58789062 39.39257812 C-73.64648785 24.7518477 -71.87049531 11.09494256 -61.36328125 0.02734375 C-44.59573208 -13.95615952 -16.80686456 -14.02887042 0 0 Z " fill="#419B73" transform="translate(1128.36328125,301.97265625)"/>
<path d="M0 0 C6.65922988 5.66277577 10.89781423 13.59125693 13 22 C13 31.9 13 41.8 13 52 C-9.11 52 -31.22 52 -54 52 C-53.19242963 65.45859975 -53.19242963 65.45859975 -45.87890625 75.8828125 C-38.90540212 80.75132972 -32.52308022 82.3920606 -24.125 82.375 C-23.29508545 82.37338867 -22.4651709 82.37177734 -21.61010742 82.37011719 C-10.3365188 82.15073227 0.13260047 79.52574374 10 74 C10.66 74 11.32 74 12 74 C12.5649614 86.27960225 12.5649614 86.27960225 9.26953125 89.90234375 C6.55506548 91.32550587 3.95336041 92.17436846 1 93 C-0.14984375 93.38542969 -1.2996875 93.77085937 -2.484375 94.16796875 C-17.72948339 98.72594503 -36.38020577 99.73989836 -50.91796875 92.55859375 C-60.44582903 87.01674789 -65.7021895 80.11452954 -69.2734375 69.7734375 C-71.38674692 61.70650371 -71.18345378 53.58702936 -71.1875 45.3125 C-71.19974609 44.01376953 -71.21199219 42.71503906 -71.22460938 41.37695312 C-71.24521238 27.70342801 -70.3482894 14.31266749 -60.88671875 3.609375 C-44.25283531 -11.90409142 -18.77502126 -11.93327623 0 0 Z " fill="#419B73" transform="translate(1431,300)"/>
<path d="M0 0 C8.89139139 6.07744917 11.92798969 13.38204977 15.6484375 23.61328125 C15.6484375 33.18328125 15.6484375 42.75328125 15.6484375 52.61328125 C-6.4615625 52.61328125 -28.5715625 52.61328125 -51.3515625 52.61328125 C-50.69998195 66.62924704 -50.69998195 66.62924704 -43.265625 77.4921875 C-35.8268291 82.76027675 -28.53819437 83.98409119 -19.6015625 83.92578125 C-18.71412354 83.9208667 -17.82668457 83.91595215 -16.91235352 83.91088867 C-6.69634777 83.7284767 1.28387482 81.05171274 10.43359375 76.6015625 C12.6484375 75.61328125 12.6484375 75.61328125 14.6484375 75.61328125 C14.87042155 80.43816996 14.81386267 84.90881267 13.6484375 89.61328125 C10.72077732 92.48308253 7.53058802 93.46727919 3.6484375 94.61328125 C2.83890625 94.91363281 2.029375 95.21398437 1.1953125 95.5234375 C-12.43661606 100.50790117 -31.51955348 100.84719062 -45.08984375 95.54296875 C-54.5101266 91.10496883 -61.20168027 84.91417107 -65.359375 75.27734375 C-68.56725485 66.15201562 -68.59637951 56.84336956 -68.64672852 47.27294922 C-68.65820373 45.76048392 -68.67858455 44.24805769 -68.70825195 42.73583984 C-68.99184609 28.22659331 -67.1399238 14.83589099 -56.69140625 3.87109375 C-41.40004024 -10.13147832 -17.23403488 -10.16292755 0 0 Z " fill="#409A72" transform="translate(997.3515625,113.38671875)"/>
<path d="M0 0 C26.4 0 52.8 0 80 0 C80 4.62 80 9.24 80 14 C58.88 14 37.76 14 16 14 C16 28.19 16 42.38 16 57 C36.79 57 57.58 57 79 57 C79 61.62 79 66.24 79 71 C58.21 71 37.42 71 16 71 C16 86.18 16 101.36 16 117 C37.45 117 58.9 117 81 117 C81 121.62 81 126.24 81 131 C54.27 131 27.54 131 0 131 C0 87.77 0 44.54 0 0 Z " fill="#3D9970" transform="translate(658,79)"/>
<path d="M0 0 C6.12830099 4.74913345 9.78454329 10.28742324 11 18 C11.1276855 20.67892979 11.21117529 23.33199832 11.23828125 26.01171875 C11.246353 26.77998489 11.25442474 27.54825104 11.26274109 28.33979797 C11.27653079 29.96275613 11.28727566 31.58574267 11.29516602 33.20874023 C11.30666002 34.85238267 11.32707099 36.49598855 11.35668945 38.1394043 C11.56699141 49.82819856 11.36148822 60.52354598 2.8046875 69.52734375 C-4.69614887 75.64815611 -13.70881811 75.909161 -23 75 C-29.21183163 73.71819347 -34.62464256 70.57084983 -38.1875 65.21484375 C-43.14370183 56.04951464 -43.37294673 46.38181162 -43.37060547 36.19848633 C-43.37498526 34.06966446 -43.41142531 31.94291101 -43.44921875 29.81445312 C-43.53784535 19.13230015 -42.03869411 10.40926767 -34.578125 2.40234375 C-25.98511935 -5.23352018 -9.75003959 -5.50499253 0 0 Z " fill="#FDFEFE" transform="translate(898,309)"/>
<path d="M0 0 C5.59163735 4.6825999 8.56561825 9.88420105 10 17 C10.37033176 21.89391992 10.43231712 26.75010835 10.39111328 31.65600586 C10.3750566 33.92948641 10.39100851 36.2011834 10.41015625 38.47460938 C10.42744149 49.42013165 9.92819897 59.14581383 1.91796875 67.3046875 C-4.9224196 73.35097781 -11.94704472 73.82999667 -20.85546875 73.4453125 C-28.12066037 72.85673169 -33.50437568 69.92930601 -38.4375 64.625 C-43.41511953 58.5924223 -44.47279646 52.4363439 -44.50390625 44.8828125 C-44.51389145 44.0262204 -44.52387665 43.1696283 -44.53416443 42.28707886 C-44.54928056 40.48358964 -44.55639225 38.68001735 -44.5559082 36.87646484 C-44.56246676 34.13887347 -44.61700307 31.40491929 -44.67382812 28.66796875 C-44.82696562 12.83018525 -44.82696562 12.83018525 -39.62231445 6.59082031 C-39.08695068 6.06584961 -38.55158691 5.54087891 -38 5 C-37.12202759 4.1013623 -37.12202759 4.1013623 -36.22631836 3.18457031 C-26.65441477 -6.13778373 -11.24420332 -7.01527623 0 0 Z " fill="#FDFEFD" transform="translate(716,310)"/>
<path d="M0 0 C5.95886478 6.12911806 7.34994476 13.44572613 7.42578125 21.72265625 C7.433853 22.56034042 7.44192474 23.3980246 7.45024109 24.26109314 C7.46407268 26.03724099 7.47479898 27.81341532 7.48266602 29.58959961 C7.49414273 31.3924141 7.51452568 33.19519577 7.54418945 34.99780273 C7.89291488 56.19602291 7.89291488 56.19602291 1.29296875 64.6875 C0.66003906 65.203125 0.02710938 65.71875 -0.625 66.25 C-1.25019531 66.78625 -1.87539063 67.3225 -2.51953125 67.875 C-10.27416645 72.525139 -20.91736853 72.66043976 -29.5390625 70.59765625 C-35.76454389 68.10532435 -40.78679727 64.02031695 -43.97900391 58.07885742 C-47.21558533 50.05394151 -47.45980033 42.48859003 -47.38891602 33.9609375 C-47.37497597 31.62096682 -47.40931626 29.28495214 -47.44726562 26.9453125 C-47.48996277 18.71870437 -47.14644023 11.9311161 -41.8125 5.25 C-41.21566406 4.48945313 -40.61882813 3.72890625 -40.00390625 2.9453125 C-28.23821318 -8.3971542 -13.4641479 -8.37769203 0 0 Z " fill="#FDFEFD" transform="translate(1011.8125,311.75)"/>
<path d="M0 0 C1.14533203 0.01393799 2.29066406 0.02787598 3.47070312 0.04223633 C11.39520038 0.21551415 18.61638691 0.73839796 26.125 3.4375 C27.09953125 3.71980469 28.0740625 4.00210937 29.078125 4.29296875 C32.04363615 5.37397212 33.90985281 6.1799351 36.125 8.4375 C37.26353371 12.81606655 37.34912555 16.93521329 37.125 21.4375 C32.98094029 20.75201644 29.29311099 19.43508909 25.375 17.9375 C19.89790214 15.93416766 14.9628813 14.57562022 9.125 14.4375 C7.93648437 14.38722656 6.74796875 14.33695312 5.5234375 14.28515625 C-2.94190718 14.0764446 -9.60921625 13.91822841 -16.375 19.5 C-18.58262585 23.8232673 -18.62859519 27.68043038 -17.875 32.4375 C-15.28392493 37.40372722 -10.89221861 39.37123002 -5.875 41.4375 C-1.99615009 42.58912102 1.92988401 43.48123047 5.875 44.375 C31.29087872 50.46420092 31.29087872 50.46420092 39 61 C42.41202542 68.39272175 42.51234193 78.67201158 40.25390625 86.4296875 C36.25672126 95.05312266 30.43798689 99.2891811 21.75 102.67578125 C4.88763393 107.56887855 -14.89874701 104.68997599 -31.01953125 98.6953125 C-33.6019464 96.94470686 -34.05971187 95.42119844 -34.875 92.4375 C-35.0703125 89.54296875 -35.0703125 89.54296875 -35 86.625 C-34.98195313 85.64917969 -34.96390625 84.67335938 -34.9453125 83.66796875 C-34.92210937 82.93191406 -34.89890625 82.19585937 -34.875 81.4375 C-33.85921875 81.84742188 -32.8434375 82.25734375 -31.796875 82.6796875 C-16.19245893 88.8475463 0.57258507 92.52572195 17.109375 87.58203125 C19.96804645 85.95879339 21.36533081 84.20878518 23.125 81.4375 C23.96718184 77.0187797 23.83388426 72.87374345 23.125 68.4375 C17.19640807 60.06772316 2.89985655 58.33296731 -6.625 55.9375 C-17.48222785 53.1661484 -26.38566146 50.17150782 -32.875 40.4375 C-36.46653366 33.55573584 -36.04362395 23.23795529 -34.22265625 15.7578125 C-31.18050117 9.04679227 -25.66734671 4.92192998 -18.93359375 2.29296875 C-12.57572631 0.06700339 -6.68510733 -0.13607986 0 0 Z " fill="#409A72" transform="translate(1495.875,292.5625)"/>
<path d="M0 0 C0 9.24 0 18.48 0 28 C13.2 28 26.4 28 40 28 C40 36 40 36 39 42 C26.13 42 13.26 42 0 42 C0.06765294 49.84307564 0.13808769 57.68524416 0.2355423 65.52786255 C0.28012444 69.18033744 0.31957555 72.8326997 0.34643555 76.48535156 C0.37252811 80.00634237 0.41297142 83.52690763 0.46318626 87.04763412 C0.48788358 89.03826001 0.49788447 91.02905075 0.50764465 93.01980591 C0.52743881 94.24061859 0.54723297 95.46143127 0.56762695 96.71923828 C0.58428154 98.32474045 0.58428154 98.32474045 0.60127258 99.962677 C1.17828894 104.35812356 2.68603409 107.77080609 5.9375 110.8125 C14.0214942 115.4669209 27.39796277 113.68937055 36.0625 111.5 C37.71457034 111.02101048 39.36349533 110.52973562 41 110 C41.027193 111.58323688 41.04648306 113.16661062 41.0625 114.75 C41.07410156 115.63171875 41.08570313 116.5134375 41.09765625 117.421875 C40.92033874 122.10305727 40.92033874 122.10305727 40 124 C28.82994565 130.11616809 14.84385853 130.8872252 2.55859375 128.265625 C-4.44216679 125.941563 -9.71670094 122.78045059 -13.25 116.125 C-17.29002164 107.65513008 -17.2678887 99.78219177 -17.1953125 90.53515625 C-17.19157708 89.1326874 -17.18873261 87.73021593 -17.18673706 86.32774353 C-17.17914221 82.65673473 -17.15952998 78.98588705 -17.1373291 75.31494141 C-17.11678072 71.56089456 -17.10771621 67.80682139 -17.09765625 64.05273438 C-17.07627963 56.70174136 -17.04113196 49.35091388 -17 42 C-22.28 42 -27.56 42 -33 42 C-33 37.38 -33 32.76 -33 28 C-27.72 28 -22.44 28 -17 28 C-17 19.09 -17 10.18 -17 1 C-7 0 -7 0 0 0 Z " fill="#439C74" transform="translate(873,83)"/>
<path d="M0 0 C0 9.24 0 18.48 0 28 C13.53 28 27.06 28 41 28 C41 35 41 35 39 41 C26.13 41 13.26 41 0 41 C0.067727 48.5480573 0.1382725 56.09518818 0.2355423 63.64277649 C0.2800514 67.15815013 0.31951689 70.67340876 0.34643555 74.18896484 C0.37761966 78.23043489 0.43240245 82.27129537 0.48828125 86.3125 C0.49467117 87.5617627 0.5010611 88.81102539 0.50764465 90.09814453 C0.63627096 97.77004448 0.94934872 104.28201875 6 110.4375 C12.20464076 115.28487559 23.53314046 113.48501654 31 113 C34.9055979 112.30315058 38.24961841 111.32366409 42 110 C41.67 114.62 41.34 119.24 41 124 C27.84013112 129.21182926 12.87643373 132.27649782 -0.92578125 127.09765625 C-8.30090048 123.19481538 -12.52190399 117.92430703 -15 110 C-15.91921717 106.15718299 -16.12143598 102.59655223 -16.11352539 98.64916992 C-16.11344986 97.3882402 -16.11337433 96.12731049 -16.11329651 94.82817078 C-16.10819069 93.46226969 -16.1029747 92.09636902 -16.09765625 90.73046875 C-16.0957897 89.32513988 -16.09436692 87.91981035 -16.09336853 86.51448059 C-16.089562 82.82705875 -16.07974774 79.1396767 -16.06866455 75.45227051 C-16.05841025 71.68498269 -16.05386232 67.9176884 -16.04882812 64.15039062 C-16.0381237 56.7669069 -16.0205421 49.38346411 -16 42 C-21.61 42 -27.22 42 -33 42 C-33 37.38 -33 32.76 -33 28 C-27.39 28 -21.78 28 -16 28 C-16 19.09 -16 10.18 -16 1 C-5 0 -5 0 0 0 Z " fill="#3F9A72" transform="translate(1259,268)"/>
<path d="M0 0 C0.495 7.92 0.495 7.92 1 16 C-0.98 15.67 -2.96 15.34 -5 15 C-15.1122016 14.08070895 -23.90482419 15.36810647 -32.1640625 21.64453125 C-33.98991803 23.36549721 -35.51218211 24.97749755 -37 27 C-37.67836914 27.88518311 -38.35673828 28.77036621 -39.05566406 29.68237305 C-42.36091328 35.56482385 -41.60555147 42.56640348 -41.609375 49.12109375 C-41.62437181 50.5908438 -41.6411021 52.06057709 -41.65948486 53.5302887 C-41.70300301 57.37878229 -41.72312258 61.22704861 -41.73822021 65.07574463 C-41.75784778 69.01091871 -41.79981122 72.94584934 -41.83984375 76.88085938 C-41.91497751 84.58720467 -41.96330321 92.29335825 -42 100 C-47.61 100 -53.22 100 -59 100 C-59 67 -59 34 -59 0 C-53.72 0 -48.44 0 -43 0 C-42.67 6.93 -42.34 13.86 -42 21 C-41.278125 19.47375 -40.55625 17.9475 -39.8125 16.375 C-35.35634184 7.54981527 -29.93727534 2.35250533 -20.6875 -1.3125 C-13.17241143 -2.71361821 -7.27819794 -2.42606598 0 0 Z " fill="#419B73" transform="translate(1221,295)"/>
<path d="M0 0 C5.61 0 11.22 0 17 0 C17 44.88 17 89.76 17 136 C11.39 136 5.78 136 0 136 C0 91.12 0 46.24 0 0 Z " fill="#429B74" transform="translate(763,74)"/>
<path d="M0 0 C1.09441406 -0.00515625 2.18882812 -0.0103125 3.31640625 -0.015625 C6.4375 0.25 6.4375 0.25 11.4375 2.25 C11.9325 10.17 11.9325 10.17 12.4375 18.25 C10.4575 17.92 8.4775 17.59 6.4375 17.25 C-4.5506083 16.25108106 -12.64071481 18.52146858 -21.9375 24.375 C-29.99830414 33.20349977 -31.45144339 41.67427207 -31.3671875 53.32421875 C-31.37846391 54.74341568 -31.39235591 56.16259397 -31.40872192 57.58174133 C-31.444464 61.27915353 -31.44517175 64.97573398 -31.43804932 68.67327881 C-31.4371303 72.46136966 -31.470081 76.24915879 -31.5 80.03710938 C-31.55358363 87.44158984 -31.56693985 94.84528532 -31.5625 102.25 C-36.8425 102.25 -42.1225 102.25 -47.5625 102.25 C-47.5625 69.25 -47.5625 36.25 -47.5625 2.25 C-42.2825 2.25 -37.0025 2.25 -31.5625 2.25 C-31.5625 10.17 -31.5625 18.09 -31.5625 26.25 C-30.2425 22.95 -28.9225 19.65 -27.5625 16.25 C-21.14591054 6.10283528 -12.29660336 -0.05807133 0 0 Z " fill="#3E9971" transform="translate(813.5625,292.75)"/>
<path d="M0 0 C5.61 0 11.22 0 17 0 C17 33 17 66 17 100 C11.39 100 5.78 100 0 100 C0 67 0 34 0 0 Z " fill="#419B73" transform="translate(1320,295)"/>
<path d="M0 0 C5.28 0 10.56 0 16 0 C16 33 16 66 16 100 C10.72 100 5.44 100 0 100 C0 67 0 34 0 0 Z " fill="#3D9970" transform="translate(808,110)"/>
<path d="M0 0 C6.10303071 3.62688526 9.0911849 8.96967271 11.75 15.375 C12.62453002 20.53472713 12.375 25.82918491 12.375 31.0625 C-4.785 31.0625 -21.945 31.0625 -39.625 31.0625 C-39.625 11.63226744 -39.625 11.63226744 -32.9453125 4.19140625 C-24.56842739 -3.57117395 -10.33657752 -4.55563447 0 0 Z " fill="#FCFDFD" transform="translate(985.625,122.9375)"/>
<path d="M0 0 C7.03043012 4.2158627 9.80147087 10.52941262 12.3125 18.0625 C12.3125 22.3525 12.3125 26.6425 12.3125 31.0625 C-4.8475 31.0625 -22.0075 31.0625 -39.6875 31.0625 C-39.6875 11.54684238 -39.6875 11.54684238 -33.81640625 4.96484375 C-24.88801214 -3.25467975 -11.2057675 -4.95376917 0 0 Z " fill="#FDFDFD" transform="translate(1111.6875,307.9375)"/>
<path d="M0 0 C6.7435924 4.2679042 11.21363014 10.5061096 13 18.1875 C13.49936801 22.59858409 13.375 27.06073979 13.375 31.5 C-3.785 31.5 -20.945 31.5 -38.625 31.5 C-38.625 11.95558087 -38.625 11.95558087 -31.91015625 4.62890625 C-23.9325546 -2.65043705 -10.02905225 -4.470544 0 0 Z " fill="#FDFDFD" transform="translate(1415.625,307.5)"/>
<path d="M0 0 C4.05949084 2.27234447 6.60375757 5.14501515 8.6875 9.3125 C8.97922012 12.55562303 8.96542433 15.80777649 9 19.0625 C9.02900391 19.95710938 9.05800781 20.85171875 9.08789062 21.7734375 C9.14272953 27.49355685 8.54313875 30.79428347 4.6875 35.3125 C-0.44934076 40.06407771 -4.8728703 40.73081966 -11.70703125 40.66015625 C-16.93080784 39.96313059 -20.65089812 37.26507364 -24.0078125 33.3203125 C-25.99909231 28.72963748 -25.78579474 24.32443584 -25.75 19.375 C-25.76998047 18.39853516 -25.78996094 17.42207031 -25.81054688 16.41601562 C-25.80657684 10.56021908 -25.38672445 6.85627159 -21.3125 2.3125 C-15.00995275 -2.73493613 -7.22926349 -3.28602886 0 0 Z " fill="#479E77" transform="translate(886.3125,491.6875)"/>
<path d="M0 0 C4.44496055 2.49696987 7.0635749 5.44072469 8.6875 10.3125 C8.8365798 13.07621005 8.91859829 15.7981242 8.9375 18.5625 C8.958125 19.30113281 8.97875 20.03976562 9 20.80078125 C9.04136163 26.66379257 8.11799608 31.42183 4.22265625 36.0546875 C-1.61678511 40.54656547 -7.07214815 41.12564721 -14.3125 40.3125 C-18.63022303 38.76357705 -21.98718755 36.31720477 -24.3125 32.3125 C-25.78060457 27.9081863 -25.57800881 23.61453489 -25.625 19 C-25.65400391 18.06220703 -25.68300781 17.12441406 -25.71289062 16.15820312 C-25.76597736 10.3635813 -25.33371918 6.82393848 -21.3125 2.3125 C-15.00995275 -2.73493613 -7.22926349 -3.28602886 0 0 Z " fill="#469E77" transform="translate(681.3125,491.6875)"/>
<path d="M0 0 C2.31 0 4.62 0 7 0 C7.99047942 3.95558872 8.96527066 7.91488966 9.9375 11.875 C10.21529297 12.98359375 10.49308594 14.0921875 10.77929688 15.234375 C12.3875995 21.82260263 13.56420023 28.22834197 14 35 C14.66 35 15.32 35 16 35 C16.10183594 33.9584375 16.20367188 32.916875 16.30859375 31.84375 C17.08498445 25.63262442 18.62175674 19.58388104 20.0625 13.5 C20.34416016 12.29601562 20.62582031 11.09203125 20.91601562 9.8515625 C21.60701817 6.90016178 22.30177299 3.94969839 23 1 C26.3 1 29.6 1 33 1 C34.00613112 4.87543969 35.00269529 8.75320496 35.99072266 12.63330078 C36.32766332 13.95101984 36.66714315 15.26809249 37.00927734 16.58447266 C37.50255854 18.48425243 37.98575213 20.38664231 38.46875 22.2890625 C38.76201172 23.43068848 39.05527344 24.57231445 39.35742188 25.74853516 C39.98545983 28.9264263 40.11975744 31.77082617 40 35 C40.66 35 41.32 35 42 35 C42.10183594 33.96875 42.20367188 32.9375 42.30859375 31.875 C43.10598925 25.49583599 44.63747725 19.26216494 46.0625 13 C46.34416016 11.74832031 46.62582031 10.49664062 46.91601562 9.20703125 C47.60730396 6.13724235 48.30205525 3.06828108 49 0 C51.31 0 53.62 0 56 0 C54.37242582 8.59923053 52.38014027 17.10821735 50.375 25.625 C50.04672627 27.02470471 49.71860021 28.42444406 49.390625 29.82421875 C48.59544967 33.21654635 47.79828563 36.6084028 47 40 C43.37 40 39.74 40 36 40 C34.9970154 36.08714061 34.00029303 32.17274436 33.00927734 28.25683594 C32.67146625 26.92567238 32.33196479 25.59493658 31.99072266 24.26464844 C31.49975601 22.3494491 31.01542258 20.43255319 30.53125 18.515625 C30.09135742 16.78747559 30.09135742 16.78747559 29.64257812 15.02441406 C29 12 29 12 29 8 C28.34 8 27.68 8 27 8 C26.90203125 8.74121094 26.8040625 9.48242188 26.703125 10.24609375 C25.74671764 16.98216973 24.49814154 23.56747307 22.9375 30.1875 C22.7631543 30.92991943 22.58880859 31.67233887 22.40917969 32.43725586 C21.1354612 37.72907759 21.1354612 37.72907759 20 40 C16.37 40 12.74 40 9 40 C8.68546875 38.6696875 8.3709375 37.339375 8.046875 35.96875 C7.61478143 34.14578637 7.18247457 32.32287328 6.75 30.5 C6.52546143 29.5527002 6.30092285 28.60540039 6.06958008 27.62939453 C4.3537541 20.41795201 2.55569431 13.23110292 0.69921875 6.0546875 C0 3 0 3 0 0 Z " fill="#489E78" transform="translate(696,491)"/>
<path d="M0 0 C2.31 0 4.62 0 7 0 C7 13.2 7 26.4 7 40 C4.69 40 2.38 40 0 40 C-0.495 37.525 -0.495 37.525 -1 35 C-1.928125 35.804375 -2.85625 36.60875 -3.8125 37.4375 C-7.62773017 40.74403281 -10.93715185 41.29851492 -16.00390625 41.21484375 C-18.98943268 40.89350529 -20.70317035 39.90308743 -23 38 C-26.15302522 33.82054116 -26.35475342 30.68103574 -26.29296875 25.51171875 C-26.28872391 24.80852005 -26.28447906 24.10532135 -26.28010559 23.3808136 C-26.2634006 21.14930869 -26.22576614 18.91872887 -26.1875 16.6875 C-26.17244248 15.1686329 -26.15875594 13.64975154 -26.14648438 12.13085938 C-26.11352473 8.42027566 -26.06180016 4.71022822 -26 1 C-24.02 1 -22.04 1 -20 1 C-19.98018066 1.82725586 -19.96036133 2.65451172 -19.93994141 3.50683594 C-19.84468788 7.25487806 -19.73500891 11.00236317 -19.625 14.75 C-19.5940625 16.05195313 -19.563125 17.35390625 -19.53125 18.6953125 C-19.49257813 19.94570313 -19.45390625 21.19609375 -19.4140625 22.484375 C-19.3826416 23.63647461 -19.3512207 24.78857422 -19.31884766 25.97558594 C-19.01331963 28.87365727 -18.59957694 30.59104139 -17 33 C-13.81092735 34.59453633 -10.47055318 34.38561702 -7 34 C-3.25452396 32.27032287 -3.25452396 32.27032287 -1 29 C-0.84530633 26.82325217 -0.74997894 24.6421652 -0.68359375 22.4609375 C-0.64169922 21.15898438 -0.59980469 19.85703125 -0.55664062 18.515625 C-0.51682701 17.13541955 -0.47711478 15.75521117 -0.4375 14.375 C-0.39430593 12.98696585 -0.35069135 11.59894472 -0.30664062 10.2109375 C-0.20028 6.80739744 -0.09825286 3.40378222 0 0 Z " fill="#4CA07B" transform="translate(930,491)"/>
<path d="M0 0 C2.31 0 4.62 0 7 0 C7 13.2 7 26.4 7 40 C4.69 40 2.38 40 0 40 C-0.495 37.525 -0.495 37.525 -1 35 C-1.928125 35.804375 -2.85625 36.60875 -3.8125 37.4375 C-7.96272494 41.03436161 -11.56044299 41.37514186 -17 41 C-21.59228608 39.07764769 -23.59055407 36.28505878 -26 32 C-26.45410156 28.47314453 -26.45410156 28.47314453 -26.390625 24.6328125 C-26.38496521 23.95322479 -26.37930542 23.27363708 -26.37347412 22.57345581 C-26.35125351 20.42322451 -26.30109198 18.27471926 -26.25 16.125 C-26.22991614 14.6588784 -26.21166868 13.19273042 -26.1953125 11.7265625 C-26.15143811 8.15048992 -26.08251443 4.57541369 -26 1 C-24.02 1 -22.04 1 -20 1 C-19.98018066 1.82725586 -19.96036133 2.65451172 -19.93994141 3.50683594 C-19.84468788 7.25487806 -19.73500891 11.00236317 -19.625 14.75 C-19.5940625 16.05195313 -19.563125 17.35390625 -19.53125 18.6953125 C-19.49257813 19.94570313 -19.45390625 21.19609375 -19.4140625 22.484375 C-19.3826416 23.63647461 -19.3512207 24.78857422 -19.31884766 25.97558594 C-19.01331963 28.87365727 -18.59957694 30.59104139 -17 33 C-14.72751762 34.13624119 -13.21697236 34.26446843 -10.6875 34.375 C-9.92824219 34.42398438 -9.16898438 34.47296875 -8.38671875 34.5234375 C-4.75404121 33.72674553 -3.33954857 31.82725263 -1 29 C-0.22772188 25.73131215 -0.22772188 25.73131215 -0.29296875 22.16796875 C-0.24946289 20.22954102 -0.24946289 20.22954102 -0.20507812 18.25195312 C-0.1986898 16.89713781 -0.19283712 15.54231987 -0.1875 14.1875 C-0.16434252 12.8131116 -0.13897455 11.43875856 -0.11132812 10.06445312 C-0.05246658 6.70934485 -0.01617663 3.35554126 0 0 Z " fill="#469D76" transform="translate(1010,491)"/>
<path d="M0 0 C2.31 0 4.62 0 7 0 C7.01458252 0.85231201 7.02916504 1.70462402 7.04418945 2.58276367 C7.10543285 5.76071175 7.17962029 8.93802546 7.26245117 12.11547852 C7.29559806 13.48775958 7.32366171 14.86017362 7.34643555 16.23266602 C7.38016766 18.21137766 7.4340149 20.18971376 7.48828125 22.16796875 C7.51446533 23.35672607 7.54064941 24.5454834 7.56762695 25.77026367 C8.03500877 29.26150822 8.87934354 31.21008817 11 34 C13.13331014 34.63941048 13.13331014 34.63941048 15.4375 34.375 C16.19933594 34.34148438 16.96117187 34.30796875 17.74609375 34.2734375 C18.48988281 34.18320312 19.23367188 34.09296875 20 34 C21.06927734 33.89558594 21.06927734 33.89558594 22.16015625 33.7890625 C24.21832713 33.1393255 24.21832713 33.1393255 25.08911133 30.8503418 C26.10960539 27.65702415 26.31883005 24.95447656 26.4140625 21.60546875 C26.45273438 20.40341797 26.49140625 19.20136719 26.53125 17.96289062 C26.5621875 16.71701172 26.593125 15.47113281 26.625 14.1875 C26.66367188 12.92228516 26.70234375 11.65707031 26.7421875 10.35351562 C26.83630657 7.23582149 26.92194361 4.11813086 27 1 C28.98 1 30.96 1 33 1 C33 13.87 33 26.74 33 40 C31.02 40 29.04 40 27 40 C26.67 38.02 26.34 36.04 26 34 C25.443125 34.78375 24.88625 35.5675 24.3125 36.375 C20.79323671 40.36983941 18.30858701 40.87537267 13.0625 41.375 C8.73292506 41.23612684 6.24814105 39.94598839 3 37 C0.4341678 32.02364497 -0.36607825 28.43207765 -0.29296875 22.75390625 C-0.28872391 22.09792953 -0.28447906 21.44195282 -0.28010559 20.76609802 C-0.26348779 18.69779089 -0.22587238 16.63050599 -0.1875 14.5625 C-0.17243111 13.14910275 -0.15874659 11.73569002 -0.14648438 10.32226562 C-0.11364104 6.88118565 -0.06198015 3.44069281 0 0 Z " fill="#4BA07A" transform="translate(1066,491)"/>
<path d="M0 0 C2.31 0 4.62 0 7 0 C7.29769287 0.93384521 7.59538574 1.86769043 7.90209961 2.82983398 C9.00415093 6.2841151 10.11022085 9.73709815 11.2175293 13.18969727 C11.69682321 14.68608896 12.17501675 16.18283355 12.65209961 17.67993164 C13.33680993 19.82791698 14.0254275 21.97461492 14.71484375 24.12109375 C14.92842026 24.79401962 15.14199677 25.4669455 15.36204529 26.16026306 C16.21761381 29.33550532 16.21761381 29.33550532 18 32 C21.63 21.44 25.26 10.88 29 0 C31.31 0 33.62 0 36 0 C35.32237357 2.85936955 34.49242311 5.61807646 33.54125977 8.39794922 C33.2474794 9.25919403 32.95369904 10.12043884 32.65101624 11.00778198 C32.17600929 12.39225021 32.17600929 12.39225021 31.69140625 13.8046875 C31.36462387 14.76142365 31.03784149 15.71815979 30.70115662 16.70388794 C29.65647099 19.76145197 28.60954821 22.81824432 27.5625 25.875 C26.51950919 28.92477927 25.47697233 31.97471337 24.43455505 35.02468872 C23.78612056 36.92138476 23.13726457 38.81793676 22.4879303 40.71432495 C20.97415835 45.13711947 19.46936758 49.56218999 18 54 C15.69 54 13.38 54 11 54 C11.65690619 50.21760329 12.720131 46.78158474 14.0625 43.1875 C14.42472656 42.21167969 14.78695312 41.23585938 15.16015625 40.23046875 C15.43730469 39.49441406 15.71445312 38.75835938 16 38 C14.68 38 13.36 38 12 38 C10.2851319 33.07241468 8.57629975 28.14279392 6.87304688 23.21118164 C6.29267483 21.5335234 5.71065251 19.85643512 5.12695312 18.17993164 C4.28862776 15.77117193 3.45624306 13.36043022 2.625 10.94921875 C2.36251465 10.19912033 2.1000293 9.44902191 1.82958984 8.67619324 C0.79579727 5.66193993 0 3.21044036 0 0 Z " fill="#479E77" transform="translate(819,491)"/>
<path d="M0 0 C1.98 0 3.96 0 6 0 C8.9629609 7.07985581 11.43018186 14.22990448 13.6875 21.5625 C14.2927805 23.52299972 14.90070493 25.48268581 15.51171875 27.44140625 C15.77428467 28.29420166 16.03685059 29.14699707 16.30737305 30.02563477 C16.8314412 31.97582972 16.8314412 31.97582972 18 33 C21.63 22.11 25.26 11.22 29 0 C31.31 0 33.62 0 36 0 C34.0758989 6.59945238 31.97768607 13.10778465 29.6796875 19.5859375 C29.37555939 20.45014313 29.07143127 21.31434875 28.75808716 22.20474243 C27.79923438 24.92893461 26.83742778 27.65206897 25.875 30.375 C24.905617 33.11941815 23.93694023 35.86407537 22.9704895 38.60952759 C22.37237118 40.30853123 21.77257106 42.00694401 21.17086792 43.7046814 C20.900336 44.47293243 20.62980408 45.24118347 20.35107422 46.03271484 C20.11363495 46.70426605 19.87619568 47.37581726 19.63156128 48.06771851 C18.99072671 50.02837192 18.47590393 51.99352863 18 54 C15.69 54 13.38 54 11 54 C12.09698167 48.30860098 13.54053077 43.25432063 16 38 C14.68 38 13.36 38 12 38 C10.2851319 33.07241468 8.57629975 28.14279392 6.87304688 23.21118164 C6.29267483 21.5335234 5.71065251 19.85643512 5.12695312 18.17993164 C4.28862776 15.77117193 3.45624306 13.36043022 2.625 10.94921875 C2.36251465 10.19912033 2.1000293 9.44902191 1.82958984 8.67619324 C0.79579727 5.66193993 0 3.21044036 0 0 Z " fill="#469D76" transform="translate(1137,491)"/>
<path d="M0 0 C1.03769531 -0.02578125 2.07539062 -0.0515625 3.14453125 -0.078125 C6.73594214 0.30913882 8.41257126 0.93206292 11.1875 3.25 C13.7408976 8.22525188 14.55350312 11.82375764 14.48046875 17.49609375 C14.47622391 18.15207047 14.47197906 18.80804718 14.46760559 19.48390198 C14.45098779 21.55220911 14.41337238 23.61949401 14.375 25.6875 C14.35993111 27.10089725 14.34624659 28.51430998 14.33398438 29.92773438 C14.30114104 33.36881435 14.24948015 36.80930719 14.1875 40.25 C11.8775 40.25 9.5675 40.25 7.1875 40.25 C7.16768066 39.35692139 7.14786133 38.46384277 7.12744141 37.54370117 C7.04931302 34.22799292 6.96262029 30.91273838 6.87011719 27.59741211 C6.83185134 26.16292932 6.79699419 24.72835135 6.765625 23.29370117 C6.71992138 21.23061122 6.66193807 19.16817505 6.6015625 17.10546875 C6.5701416 15.86434326 6.5387207 14.62321777 6.50634766 13.34448242 C6.41350791 10.08363899 6.41350791 10.08363899 4.1875 7.25 C0.58177296 6.04809099 -2.0227435 5.92329685 -5.8125 6.25 C-8.56579021 8.04562405 -10.33877461 9.30254922 -11.8125 12.25 C-11.96691209 14.35374996 -12.06242639 16.46195119 -12.12890625 18.5703125 C-12.17080078 19.82714844 -12.21269531 21.08398438 -12.25585938 22.37890625 C-12.29517578 23.69761719 -12.33449219 25.01632812 -12.375 26.375 C-12.41819512 27.71485751 -12.46180973 29.05470156 -12.50585938 30.39453125 C-12.61220981 33.67957815 -12.71423808 36.96470281 -12.8125 40.25 C-14.7925 40.25 -16.7725 40.25 -18.8125 40.25 C-18.8125 27.38 -18.8125 14.51 -18.8125 1.25 C-16.8325 1.25 -14.8525 1.25 -12.8125 1.25 C-12.4825 2.9 -12.1525 4.55 -11.8125 6.25 C-10.884375 5.0434375 -10.884375 5.0434375 -9.9375 3.8125 C-6.75580384 -0.02425125 -4.84085038 0.07162787 0 0 Z " fill="#489F78" transform="translate(778.8125,490.75)"/>
<path d="M0 0 C0.74765625 -0.04898437 1.4953125 -0.09796875 2.265625 -0.1484375 C5.99658616 0.63764551 8.56161185 2.3077198 10.75 5.375 C11.54481393 8.57273976 11.4554991 11.59856459 11.3125 14.875 C11.31056641 15.71675781 11.30863281 16.55851563 11.30664062 17.42578125 C11.20567043 22.17511991 10.84280654 25.54508723 7.75 29.375 C4.03289437 31.23355282 -0.20277281 30.95408439 -4.25 30.375 C-7.59625024 27.84823961 -8.92977847 26.33566458 -10.25 22.375 C-10.42241708 19.94137528 -10.51665768 17.50179404 -10.5625 15.0625 C-10.59988281 13.76699219 -10.63726563 12.47148437 -10.67578125 11.13671875 C-10.18641343 6.81322145 -8.97598434 4.71799749 -6.25 1.375 C-3.99224185 0.24612092 -2.51243075 0.11109388 0 0 Z " fill="#FCFDFC" transform="translate(877.25,495.625)"/>
<path d="M0 0 C2.87029869 1.79393668 4.49131638 2.98263276 6 6 C6.15144814 8.95032632 6.23142405 11.86124618 6.25 14.8125 C6.270625 15.62009766 6.29125 16.42769531 6.3125 17.25976562 C6.34354447 21.99792792 6.10500833 25.16395816 3 29 C-0.71710563 30.85855282 -4.95277281 30.57908439 -9 30 C-12.34625024 27.47323961 -13.67977847 25.96066458 -15 22 C-15.17241708 19.56637528 -15.26665768 17.12679404 -15.3125 14.6875 C-15.34988281 13.39199219 -15.38726563 12.09648437 -15.42578125 10.76171875 C-14.93641343 6.43822145 -13.72598434 4.34299749 -11 1 C-7.54260443 -0.72869779 -3.78024432 -0.48966895 0 0 Z " fill="#FCFDFD" transform="translate(677,496)"/>
<path d="M0 0 C3.19921875 -0.46484375 3.19921875 -0.46484375 7 0 C9.16470831 2.16623007 10.4324657 4.72417052 11.8125 7.4375 C14.10143334 12.4805276 14.10143334 12.4805276 18 16 C18.26425781 15.29488281 18.52851562 14.58976562 18.80078125 13.86328125 C20.90287351 8.84427922 23.44400362 4.13917978 27 0 C30.9375 -0.6875 30.9375 -0.6875 34 0 C32.53122709 4.1679315 30.44342158 7.49573426 27.9375 11.125 C25.00985657 15.33318679 25.00985657 15.33318679 23 20 C23.88307389 22.05497185 23.88307389 22.05497185 25.30859375 24.16015625 C25.80810547 24.95357422 26.30761719 25.74699219 26.82226562 26.56445312 C27.35529297 27.38880859 27.88832031 28.21316406 28.4375 29.0625 C29.48166814 30.69679484 30.52222414 32.33340497 31.55859375 33.97265625 C32.02579834 34.69718994 32.49300293 35.42172363 32.97436523 36.16821289 C34 38 34 38 34 40 C30.80859375 40.4609375 30.80859375 40.4609375 27 40 C24.7881501 37.8618531 23.48289034 35.3323875 22.0625 32.625 C21.66482422 31.92632813 21.26714844 31.22765625 20.85742188 30.5078125 C18 25.39297816 18 25.39297816 18 23 C14.71165383 25.79042625 12.87264311 29.47328176 10.8125 33.1875 C10.26045898 34.16879883 10.26045898 34.16879883 9.69726562 35.16992188 C8.7937534 36.77746961 7.8962759 38.38840651 7 40 C4.36 40 1.72 40 -1 40 C0.27015331 37.77044347 1.54110048 35.54134574 2.8125 33.3125 C3.16892578 32.68666016 3.52535156 32.06082031 3.89257812 31.41601562 C4.24384766 30.80048828 4.59511719 30.18496094 4.95703125 29.55078125 C5.30072754 28.94186035 5.64442383 28.33293945 5.99853516 27.70556641 C6.87404415 26.21451184 7.84240876 24.77877787 8.82421875 23.35546875 C10.18100289 21.08630327 10.18100289 21.08630327 9.97265625 18.63671875 C8.62980592 14.99646183 6.61643113 12.00581866 4.4375 8.8125 C0 2.24715478 0 2.24715478 0 0 Z " fill="#469D76" transform="translate(1025,491)"/>
<path d="M0 0 C2.5625 1.375 2.5625 1.375 4 4 C4.85056821 9.30787279 4.8830652 13.49878916 2.125 18.1875 C-2.26410658 20.73318182 -6.03988188 20.92164357 -11 20 C-14.09799981 17.80873184 -14.80352112 16.58943664 -16 13 C-16.6914329 5.85519333 -16.6914329 5.85519333 -13.625 2.0625 C-8.93522904 -1.62232004 -5.6862211 -1.24228276 0 0 Z " fill="#429B73" transform="translate(822,73)"/>
<path d="M0 0 C2.93423195 1.79646854 4.47205355 2.9441071 6 6 C6.54724071 11.69130337 5.59333707 14.56117185 2 19 C-1.69153519 20.8457676 -5.97021939 20.48175083 -10 20 C-13.09799981 17.80873184 -13.80352112 16.58943664 -15 13 C-15.41296625 5.42895204 -15.41296625 5.42895204 -13 2 C-8.76447144 -0.82368571 -4.97522686 -0.66653757 0 0 Z " fill="#429B73" transform="translate(1333,258)"/>
<path d="M0 0 C1.22589844 0.01353516 1.22589844 0.01353516 2.4765625 0.02734375 C3.41628906 0.04474609 3.41628906 0.04474609 4.375 0.0625 C4.375 2.0425 4.375 4.0225 4.375 6.0625 C3.71113281 6.14886719 3.04726562 6.23523438 2.36328125 6.32421875 C-3.51028716 7.25884496 -6.77048705 8.21327403 -10.625 13.0625 C-10.955 13.3925 -11.285 13.7225 -11.625 14.0625 C-11.78306531 15.98728813 -11.876135 17.9174921 -11.94140625 19.84765625 C-11.98330078 21.01748047 -12.02519531 22.18730469 -12.06835938 23.39257812 C-12.10767578 24.62427734 -12.14699219 25.85597656 -12.1875 27.125 C-12.25227539 28.97834961 -12.25227539 28.97834961 -12.31835938 30.86914062 C-12.42484198 33.93347335 -12.52685424 36.99789073 -12.625 40.0625 C-14.605 40.0625 -16.585 40.0625 -18.625 40.0625 C-18.625 27.1925 -18.625 14.3225 -18.625 1.0625 C-16.645 1.0625 -14.665 1.0625 -12.625 1.0625 C-12.295 3.0425 -11.965 5.0225 -11.625 7.0625 C-10.449375 5.6084375 -10.449375 5.6084375 -9.25 4.125 C-6.34276518 0.52920957 -4.61628746 -0.06594696 0 0 Z " fill="#3E9970" transform="translate(1128.625,490.9375)"/>
<path d="M0 0 C1.98 0 3.96 0 6 0 C6 17.82 6 35.64 6 54 C4.02 54 2.04 54 0 54 C0 36.18 0 18.36 0 0 Z " fill="#3E9971" transform="translate(967,477)"/>
<path d="M0 0 C1.98 0 3.96 0 6 0 C6 12.87 6 25.74 6 39 C4.02 39 2.04 39 0 39 C-0.97239095 30.17851796 -0.98082322 21.60691236 -0.5625 12.75 C-0.51029297 11.51636719 -0.45808594 10.28273438 -0.40429688 9.01171875 C-0.27620809 6.00745447 -0.14133763 3.00366508 0 0 Z " fill="#3D9970" transform="translate(1093,492)"/>
<path d="M0 0 C1.98 0 3.96 0 6 0 C7.06841058 8.62415669 6.95347652 17.01860686 6.5625 25.6875 C6.51029297 26.97333984 6.45808594 28.25917969 6.40429688 29.58398438 C6.27593636 32.72298234 6.14104312 35.8615507 6 39 C4.02 39 2.04 39 0 39 C0 26.13 0 13.26 0 0 Z " fill="#3D9970" transform="translate(760,492)"/>
<path d="M0 0 C1.98 0 3.96 0 6 0 C6 12.54 6 25.08 6 38 C4.35 38 2.7 38 1 38 C1 35.36 1 32.72 1 30 C0.34 30 -0.32 30 -1 30 C-0.67 20.1 -0.34 10.2 0 0 Z " fill="#3E9970" transform="translate(930,492)"/>
<path d="M0 0 C1.22589844 0.01353516 1.22589844 0.01353516 2.4765625 0.02734375 C3.41628906 0.04474609 3.41628906 0.04474609 4.375 0.0625 C4.375 2.0425 4.375 4.0225 4.375 6.0625 C3.71113281 6.17207031 3.04726562 6.28164063 2.36328125 6.39453125 C-2.53379478 7.27386023 -6.52661428 8.05701714 -10.625 11.0625 C-11.4375 9.4375 -11.4375 9.4375 -11.625 7.0625 C-7.97688508 2.03401727 -6.15103539 -0.08787193 0 0 Z " fill="#459D76" transform="translate(1128.625,490.9375)"/>
</svg>
